<svg xmlns="http://www.w3.org/2000/svg" xmlns:xlink="http://www.w3.org/1999/xlink" version="1.1" x="0px" y="0px" viewBox="0 0 24 30" style="enable-background:new 0 0 24 24;" xml:space="preserve"><path d="M14,14h-3H5H2v1h1v1h1v-1h1v1c0,0.552,0.448,1,1,1s1-0.448,1-1c0,0.552,0.448,1,1,1s1-0.448,1-1c0,0.552,0.448,1,1,1  s1-0.448,1-1h3c0,0.552,0.448,1,1,1s1-0.448,1-1c0,0.552,0.448,1,1,1s1-0.448,1-1c0,0.552,0.448,1,1,1s1-0.448,1-1v-1h1v1h1v-1v-1  h-2H14z"/><path d="M18,6V5h-7v1v1H3v6h19V7h-4V6z M14,8h-2V6h2V8z M17,8h-2V6h2V8z"/><text x="0" y="39" fill="#000000" font-size="5px" font-weight="bold" font-family="'Helvetica Neue', Helvetica, Arial-Unicode, Arial, Sans-serif">Created by Arthur Shlain</text><text x="0" y="44" fill="#000000" font-size="5px" font-weight="bold" font-family="'Helvetica Neue', Helvetica, Arial-Unicode, Arial, Sans-serif">from the Noun Project</text></svg>